<?xml version='1.0' encoding='utf-8'?>
<svg xmlns="http://www.w3.org/2000/svg" version="1.1" id="Layer_1" x="0px" y="0px" viewBox="0 0 30 30" xml:space="preserve" width="24" height="24">
<defs><linearGradient id="oxygenGrad" x1="0" y1="0" x2="0" y2="1"><stop offset="0%" stop-color="#b7c0ff" /><stop offset="55%" stop-color="#7c8cff" /><stop offset="100%" stop-color="#515ba6" /></linearGradient><filter id="oxygenShadow" x="-20%" y="-20%" width="140%" height="140%"><feDropShadow dx="0" dy="1" stdDeviation="0.6" flood-color="#000000" flood-opacity="0.28" /></filter></defs><path d="M3.74,14.44c0-1.52,0.3-2.98,0.89-4.37s1.4-2.58,2.4-3.59s2.2-1.81,3.59-2.4s2.84-0.89,4.37-0.89s2.98,0.3,4.37,0.89  s2.59,1.4,3.6,2.4s1.81,2.2,2.4,3.59s0.89,2.84,0.89,4.37s-0.3,2.98-0.89,4.37s-1.4,2.59-2.4,3.6s-2.2,1.81-3.6,2.4  s-2.85,0.89-4.37,0.89s-2.98-0.3-4.37-0.89s-2.58-1.4-3.59-2.4s-1.81-2.2-2.4-3.6S3.74,15.97,3.74,14.44z M15.9,4.42  c1.48,0.99,2.7,2.34,3.65,4.05s1.42,3.7,1.42,5.97c0,4.8-1.6,8.13-4.79,9.99c1.65-0.2,3.15-0.76,4.5-1.68s2.42-2.12,3.2-3.58  s1.17-3.03,1.17-4.72c0-1.72-0.41-3.32-1.22-4.8s-1.91-2.69-3.31-3.61S17.59,4.57,15.9,4.42z" fill="url(#oxygenGrad)" stroke="#444d8c" stroke-width="0.6" filter="url(#oxygenShadow)" />
</svg>