<?xml version='1.0' encoding='utf-8'?>
<svg xmlns="http://www.w3.org/2000/svg" version="1.1" id="Layer_1" x="0px" y="0px" viewBox="0 0 30 30" xml:space="preserve" width="22" height="22">
<defs><linearGradient id="oxygenGrad" x1="0" y1="0" x2="0" y2="1"><stop offset="0%" stop-color="#b7c0ff" /><stop offset="55%" stop-color="#7c8cff" /><stop offset="100%" stop-color="#515ba6" /></linearGradient><filter id="oxygenShadow" x="-20%" y="-20%" width="140%" height="140%"><feDropShadow dx="0" dy="1" stdDeviation="0.6" flood-color="#000000" flood-opacity="0.28" /></filter></defs><path d="M3.74,14.44c0-1.52,0.3-2.98,0.89-4.37s1.4-2.58,2.4-3.59s2.2-1.81,3.59-2.4s2.84-0.89,4.37-0.89s2.98,0.3,4.37,0.89  s2.59,1.4,3.6,2.4s1.81,2.2,2.4,3.59s0.89,2.84,0.89,4.37s-0.3,2.98-0.89,4.37s-1.4,2.59-2.4,3.6s-2.2,1.81-3.6,2.4  s-2.85,0.89-4.37,0.89s-2.98-0.3-4.37-0.89s-2.58-1.4-3.59-2.4s-1.81-2.2-2.4-3.6S3.74,15.97,3.74,14.44z M4.94,14.44  c0,1.34,0.26,2.62,0.77,3.85s1.21,2.29,2.08,3.19s1.92,1.62,3.13,2.16s2.48,0.83,3.81,0.87c-1.71-2.32-2.56-5.68-2.56-10.06  c0-1.87,0.23-3.67,0.69-5.41s1.11-3.29,1.95-4.64c-1.8,0.03-3.45,0.5-4.96,1.41s-2.7,2.13-3.58,3.65S4.94,12.65,4.94,14.44z" fill="url(#oxygenGrad)" stroke="#444d8c" stroke-width="0.6" filter="url(#oxygenShadow)" />
</svg>