<?xml version='1.0' encoding='utf-8'?>
<svg xmlns="http://www.w3.org/2000/svg" version="1.1" id="Layer_1" x="0px" y="0px" viewBox="0 0 30 30" xml:space="preserve" width="16" height="16">
<defs><linearGradient id="oxygenGrad" x1="0" y1="0" x2="0" y2="1"><stop offset="0%" stop-color="#b7c0ff" /><stop offset="55%" stop-color="#7c8cff" /><stop offset="100%" stop-color="#515ba6" /></linearGradient><filter id="oxygenShadow" x="-20%" y="-20%" width="140%" height="140%"><feDropShadow dx="0" dy="1" stdDeviation="0.6" flood-color="#000000" flood-opacity="0.28" /></filter></defs><path d="M3.74,14.44c0-1.52,0.3-2.98,0.89-4.37s1.4-2.58,2.4-3.59s2.2-1.81,3.59-2.4s2.84-0.89,4.37-0.89s2.98,0.3,4.37,0.89  s2.59,1.4,3.6,2.4s1.81,2.2,2.4,3.59s0.89,2.84,0.89,4.37s-0.3,2.98-0.89,4.37s-1.4,2.59-2.4,3.6s-2.2,1.81-3.6,2.4  s-2.85,0.89-4.37,0.89s-2.98-0.3-4.37-0.89s-2.58-1.4-3.59-2.4s-1.81-2.2-2.4-3.6S3.74,15.97,3.74,14.44z M4.94,14.44  c0,1.37,0.27,2.67,0.8,3.91s1.25,2.31,2.15,3.21s1.97,1.61,3.21,2.15s2.54,0.8,3.9,0.8c0.33,0,0.58,0,0.73-0.01  c0.78-0.61,1.44-1.31,1.96-2.11s0.92-1.66,1.18-2.57s0.44-1.79,0.54-2.63s0.15-1.75,0.15-2.74c0-1.91-0.32-3.76-0.97-5.54  s-1.65-3.28-3.02-4.49c-0.13-0.01-0.32-0.01-0.59-0.01c-1.36,0-2.66,0.27-3.9,0.8S8.79,6.44,7.89,7.34s-1.61,1.97-2.15,3.21  S4.94,13.09,4.94,14.44z" fill="url(#oxygenGrad)" stroke="#444d8c" stroke-width="0.6" filter="url(#oxygenShadow)" />
</svg>